<svg xmlns="http://www.w3.org/2000/svg" viewBox="0 0 512 512">
  <path d="M 309 136 L 270 150 L 252 163 L 231 187 L 220 207 L 214 228 L 213 273 L 219 297 L 233 322 L 261 350 L 296 367 L 321 371 L 345 370 L 366 365 L 390 353 L 424 320 L 441 281 L 444 263 L 443 236 L 437 211 L 426 189 L 411 170 L 392 154 L 356 138 L 340 135 Z M 77 112 L 69 120 L 65 135 L 65 366 L 70 389 L 79 397 L 88 400 L 287 400 L 246 392 L 214 381 L 183 366 L 155 348 L 119 318 L 95 291 L 81 269 L 78 251 L 82 238 L 102 210 L 129 182 L 156 160 L 188 140 L 225 123 L 255 114 L 288 109 L 84 109 Z" fill="#000000"/>
</svg>
